# xmcd CD database file
#
# Track frame offsets:
#	150
#	22677
#	50222
#	69537
#	91107
#	121170
#	156415
#	162232
#	189860
#	213797
#	238362
#	265200
#
# Disc length: 3945 seconds
#
# Revision: 0
# Processed by: cddbd v1.5.1PL0 Copyright (c) Steve Scherf et al.
# Submitted via: CDex 1.51
#
DISCID=9c0f670c
DTITLE=FORCE OF NATURE - FORCE OF NATURE 2
DYEAR=2004
DGENRE=ヒップ ホップ (一般)
TTITLE0=Just Landed
TTITLE1=Unstoppable
TTITLE2=Bol-Ster
TTITLE3=Majestic Two
TTITLE4=Afroshock
TTITLE5=Force Field
TTITLE6=A New Dawn (skit)
TTITLE7=Magic Hills
TTITLE8=Static
TTITLE9=Same Ol’ Thing
TTITLE10=Shore Byrd
TTITLE11=Skyy High
EXTD=YEAR: 2004
EXTT0=
EXTT1=
EXTT2=
EXTT3=
EXTT4=
EXTT5=
EXTT6=
EXTT7=
EXTT8=
EXTT9=
EXTT10=
EXTT11=
PLAYORDER=
